<mxfile modified="2024-01-29T12:23:29.822Z" host="Electron" agent="Mozilla/5.0 (X11; Linux x86_64) AppleWebKit/537.36 (KHTML, like Gecko) draw.io/22.1.16 Chrome/120.0.6099.109 Electron/28.1.0 Safari/537.36" etag="F-O1-NONhjeTyF6PTfXJ" version="22.1.16" type="device">
  <diagram id="Ht1M8jgEwFfnCIfOTk4-" name="Page-1">
    <mxGraphModel dx="1602" dy="843" grid="1" gridSize="10" guides="1" tooltips="1" connect="1" arrows="1" fold="1" page="1" pageScale="1" pageWidth="1169" pageHeight="827" math="0" shadow="0">
      <root>
        <mxCell id="0" />
        <mxCell id="1" parent="0" />
        <mxCell id="7-LpJYeyA-MKppw4qdrL-4" value="AWS Cloud" style="points=[[0,0],[0.25,0],[0.5,0],[0.75,0],[1,0],[1,0.25],[1,0.5],[1,0.75],[1,1],[0.75,1],[0.5,1],[0.25,1],[0,1],[0,0.75],[0,0.5],[0,0.25]];outlineConnect=0;gradientColor=none;html=1;whiteSpace=wrap;fontSize=12;fontStyle=0;container=1;pointerEvents=0;collapsible=0;recursiveResize=0;shape=mxgraph.aws4.group;grIcon=mxgraph.aws4.group_aws_cloud_alt;strokeColor=#232F3E;fillColor=none;verticalAlign=top;align=left;spacingLeft=30;fontColor=#232F3E;dashed=0;" parent="1" vertex="1">
          <mxGeometry x="40" y="60" width="1100" height="816" as="geometry" />
        </mxCell>
        <mxCell id="7-LpJYeyA-MKppw4qdrL-6" value="eu-central-1" style="points=[[0,0],[0.25,0],[0.5,0],[0.75,0],[1,0],[1,0.25],[1,0.5],[1,0.75],[1,1],[0.75,1],[0.5,1],[0.25,1],[0,1],[0,0.75],[0,0.5],[0,0.25]];outlineConnect=0;gradientColor=none;html=1;whiteSpace=wrap;fontSize=12;fontStyle=0;container=1;pointerEvents=0;collapsible=0;recursiveResize=0;shape=mxgraph.aws4.group;grIcon=mxgraph.aws4.group_region;strokeColor=#147EBA;fillColor=none;verticalAlign=top;align=left;spacingLeft=30;fontColor=#147EBA;dashed=1;" parent="7-LpJYeyA-MKppw4qdrL-4" vertex="1">
          <mxGeometry x="10" y="30" width="1070" height="770" as="geometry" />
        </mxCell>
        <mxCell id="7-LpJYeyA-MKppw4qdrL-16" value="VPC" style="points=[[0,0],[0.25,0],[0.5,0],[0.75,0],[1,0],[1,0.25],[1,0.5],[1,0.75],[1,1],[0.75,1],[0.5,1],[0.25,1],[0,1],[0,0.75],[0,0.5],[0,0.25]];outlineConnect=0;gradientColor=none;html=1;whiteSpace=wrap;fontSize=12;fontStyle=0;container=1;pointerEvents=0;collapsible=0;recursiveResize=0;shape=mxgraph.aws4.group;grIcon=mxgraph.aws4.group_vpc;strokeColor=#248814;fillColor=none;verticalAlign=top;align=left;spacingLeft=30;fontColor=#AAB7B8;dashed=0;" parent="7-LpJYeyA-MKppw4qdrL-6" vertex="1">
          <mxGeometry x="10" y="30" width="1050" height="720" as="geometry" />
        </mxCell>
        <mxCell id="7-LpJYeyA-MKppw4qdrL-17" value="Public subnet" style="points=[[0,0],[0.25,0],[0.5,0],[0.75,0],[1,0],[1,0.25],[1,0.5],[1,0.75],[1,1],[0.75,1],[0.5,1],[0.25,1],[0,1],[0,0.75],[0,0.5],[0,0.25]];outlineConnect=0;gradientColor=none;html=1;whiteSpace=wrap;fontSize=12;fontStyle=0;container=1;pointerEvents=0;collapsible=0;recursiveResize=0;shape=mxgraph.aws4.group;grIcon=mxgraph.aws4.group_security_group;grStroke=0;strokeColor=#248814;fillColor=#E9F3E6;verticalAlign=top;align=left;spacingLeft=30;fontColor=#248814;dashed=0;" parent="7-LpJYeyA-MKppw4qdrL-16" vertex="1">
          <mxGeometry x="10" y="26" width="1030" height="687.09" as="geometry" />
        </mxCell>
        <mxCell id="7-LpJYeyA-MKppw4qdrL-10" value="" style="sketch=0;points=[[0,0,0],[0.25,0,0],[0.5,0,0],[0.75,0,0],[1,0,0],[0,1,0],[0.25,1,0],[0.5,1,0],[0.75,1,0],[1,1,0],[0,0.25,0],[0,0.5,0],[0,0.75,0],[1,0.25,0],[1,0.5,0],[1,0.75,0]];outlineConnect=0;fontColor=#232F3E;fillColor=#ED7100;strokeColor=#ffffff;dashed=0;verticalLabelPosition=bottom;verticalAlign=top;align=center;html=1;fontSize=12;fontStyle=0;aspect=fixed;shape=mxgraph.aws4.resourceIcon;resIcon=mxgraph.aws4.ecs;" parent="7-LpJYeyA-MKppw4qdrL-17" vertex="1">
          <mxGeometry x="687.12" y="158" width="125.17" height="125.17" as="geometry" />
        </mxCell>
        <mxCell id="7-LpJYeyA-MKppw4qdrL-9" value="" style="sketch=0;points=[[0,0,0],[0.25,0,0],[0.5,0,0],[0.75,0,0],[1,0,0],[0,1,0],[0.25,1,0],[0.5,1,0],[0.75,1,0],[1,1,0],[0,0.25,0],[0,0.5,0],[0,0.75,0],[1,0.25,0],[1,0.5,0],[1,0.75,0]];outlineConnect=0;fontColor=#232F3E;fillColor=#C925D1;strokeColor=#ffffff;dashed=0;verticalLabelPosition=bottom;verticalAlign=top;align=center;html=1;fontSize=12;fontStyle=0;aspect=fixed;shape=mxgraph.aws4.resourceIcon;resIcon=mxgraph.aws4.timestream;" parent="7-LpJYeyA-MKppw4qdrL-17" vertex="1">
          <mxGeometry x="686.1600000000001" y="498.62" width="127.09" height="127.09" as="geometry" />
        </mxCell>
        <mxCell id="7-LpJYeyA-MKppw4qdrL-35" style="edgeStyle=orthogonalEdgeStyle;rounded=0;orthogonalLoop=1;jettySize=auto;html=1;exitX=1;exitY=0.5;exitDx=0;exitDy=0;exitPerimeter=0;" parent="7-LpJYeyA-MKppw4qdrL-17" source="7-LpJYeyA-MKppw4qdrL-11" target="7-LpJYeyA-MKppw4qdrL-9" edge="1">
          <mxGeometry relative="1" as="geometry" />
        </mxCell>
        <mxCell id="7-LpJYeyA-MKppw4qdrL-11" value="" style="sketch=0;points=[[0,0,0],[0.25,0,0],[0.5,0,0],[0.75,0,0],[1,0,0],[0,1,0],[0.25,1,0],[0.5,1,0],[0.75,1,0],[1,1,0],[0,0.25,0],[0,0.5,0],[0,0.75,0],[1,0.25,0],[1,0.5,0],[1,0.75,0]];outlineConnect=0;fontColor=#232F3E;fillColor=#7AA116;strokeColor=#ffffff;dashed=0;verticalLabelPosition=bottom;verticalAlign=top;align=center;html=1;fontSize=12;fontStyle=0;aspect=fixed;shape=mxgraph.aws4.resourceIcon;resIcon=mxgraph.aws4.iot_core;rotation=0;" parent="7-LpJYeyA-MKppw4qdrL-17" vertex="1">
          <mxGeometry x="438.00000000000006" y="500" width="124.34" height="124.34" as="geometry" />
        </mxCell>
        <mxCell id="r2aRSGWTVSXIvTG8wzOx-7" value="" style="edgeStyle=orthogonalEdgeStyle;rounded=0;orthogonalLoop=1;jettySize=auto;html=1;" parent="7-LpJYeyA-MKppw4qdrL-17" source="7-LpJYeyA-MKppw4qdrL-18" target="7-LpJYeyA-MKppw4qdrL-23" edge="1">
          <mxGeometry relative="1" as="geometry" />
        </mxCell>
        <mxCell id="7-LpJYeyA-MKppw4qdrL-18" value="EC2 Graviton ARM" style="points=[[0,0],[0.25,0],[0.5,0],[0.75,0],[1,0],[1,0.25],[1,0.5],[1,0.75],[1,1],[0.75,1],[0.5,1],[0.25,1],[0,1],[0,0.75],[0,0.5],[0,0.25]];outlineConnect=0;gradientColor=none;html=1;whiteSpace=wrap;fontSize=12;fontStyle=0;container=1;pointerEvents=0;collapsible=0;recursiveResize=0;shape=mxgraph.aws4.group;grIcon=mxgraph.aws4.group_ec2_instance_contents;strokeColor=#D86613;fillColor=none;verticalAlign=top;align=left;spacingLeft=30;fontColor=#D86613;dashed=0;" parent="7-LpJYeyA-MKppw4qdrL-17" vertex="1">
          <mxGeometry x="20" y="120" width="350" height="300" as="geometry" />
        </mxCell>
        <mxCell id="7-LpJYeyA-MKppw4qdrL-1" value="" style="sketch=0;points=[[0,0,0],[0.25,0,0],[0.5,0,0],[0.75,0,0],[1,0,0],[0,1,0],[0.25,1,0],[0.5,1,0],[0.75,1,0],[1,1,0],[0,0.25,0],[0,0.5,0],[0,0.75,0],[1,0.25,0],[1,0.5,0],[1,0.75,0]];outlineConnect=0;fontColor=#232F3E;fillColor=#7AA116;strokeColor=#ffffff;dashed=0;verticalLabelPosition=bottom;verticalAlign=top;align=center;html=1;fontSize=12;fontStyle=0;aspect=fixed;shape=mxgraph.aws4.resourceIcon;resIcon=mxgraph.aws4.iot_fleetwise;" parent="7-LpJYeyA-MKppw4qdrL-18" vertex="1">
          <mxGeometry x="130" y="151" width="99" height="99" as="geometry" />
        </mxCell>
        <mxCell id="7-LpJYeyA-MKppw4qdrL-21" value="&lt;font style=&quot;font-size: 14px;&quot;&gt;AWS IoT FleetWise Agent&lt;/font&gt;" style="text;html=1;align=center;verticalAlign=middle;resizable=0;points=[];autosize=1;strokeColor=none;fillColor=none;" parent="7-LpJYeyA-MKppw4qdrL-18" vertex="1">
          <mxGeometry x="89.5" y="250" width="180" height="30" as="geometry" />
        </mxCell>
        <mxCell id="7-LpJYeyA-MKppw4qdrL-42" value="&lt;font style=&quot;font-size: 14px;&quot;&gt;Can Simulator&lt;/font&gt;" style="text;html=1;align=center;verticalAlign=middle;resizable=0;points=[];autosize=1;strokeColor=none;fillColor=none;" parent="7-LpJYeyA-MKppw4qdrL-18" vertex="1">
          <mxGeometry x="3.5" y="30" width="110" height="30" as="geometry" />
        </mxCell>
        <mxCell id="7-LpJYeyA-MKppw4qdrL-46" value="" style="sketch=0;points=[[0,0,0],[0.25,0,0],[0.5,0,0],[0.75,0,0],[1,0,0],[0,1,0],[0.25,1,0],[0.5,1,0],[0.75,1,0],[1,1,0],[0,0.25,0],[0,0.5,0],[0,0.75,0],[1,0.25,0],[1,0.5,0],[1,0.75,0]];gradientDirection=north;outlineConnect=0;fontColor=#232F3E;gradientColor=none;fillColor=#1E262E;strokeColor=#ffffff;dashed=0;verticalLabelPosition=bottom;verticalAlign=top;align=center;html=1;fontSize=12;fontStyle=0;aspect=fixed;shape=mxgraph.aws4.resourceIcon;resIcon=mxgraph.aws4.general;" parent="7-LpJYeyA-MKppw4qdrL-18" vertex="1">
          <mxGeometry x="20" y="56" width="77" height="77" as="geometry" />
        </mxCell>
        <mxCell id="7-LpJYeyA-MKppw4qdrL-49" value="" style="edgeStyle=orthogonalEdgeStyle;html=1;endArrow=block;elbow=vertical;startArrow=none;endFill=1;strokeColor=#545B64;rounded=0;entryX=0.5;entryY=0;entryDx=0;entryDy=0;entryPerimeter=0;" parent="7-LpJYeyA-MKppw4qdrL-18" target="7-LpJYeyA-MKppw4qdrL-1" edge="1">
          <mxGeometry width="100" relative="1" as="geometry">
            <mxPoint x="97" y="87.5" as="sourcePoint" />
            <mxPoint x="197" y="87.5" as="targetPoint" />
            <Array as="points">
              <mxPoint x="180" y="88" />
            </Array>
          </mxGeometry>
        </mxCell>
        <mxCell id="r2aRSGWTVSXIvTG8wzOx-1" value="" style="sketch=0;outlineConnect=0;fontColor=#232F3E;gradientColor=none;fillColor=#ED7100;strokeColor=none;dashed=0;verticalLabelPosition=bottom;verticalAlign=top;align=center;html=1;fontSize=12;fontStyle=0;aspect=fixed;pointerEvents=1;shape=mxgraph.aws4.m6g_instance;" parent="7-LpJYeyA-MKppw4qdrL-18" vertex="1">
          <mxGeometry x="300" width="50" height="50" as="geometry" />
        </mxCell>
        <mxCell id="7-LpJYeyA-MKppw4qdrL-24" value="&lt;font style=&quot;font-size: 14px;&quot;&gt;AWS IoT FleetWise&lt;/font&gt;" style="text;html=1;align=center;verticalAlign=middle;resizable=0;points=[];autosize=1;strokeColor=none;fillColor=none;" parent="7-LpJYeyA-MKppw4qdrL-17" vertex="1">
          <mxGeometry x="125" y="625.71" width="140" height="30" as="geometry" />
        </mxCell>
        <mxCell id="7-LpJYeyA-MKppw4qdrL-36" style="edgeStyle=orthogonalEdgeStyle;rounded=0;orthogonalLoop=1;jettySize=auto;html=1;exitX=0.5;exitY=0;exitDx=0;exitDy=0;exitPerimeter=0;entryX=0.5;entryY=1;entryDx=0;entryDy=0;entryPerimeter=0;" parent="7-LpJYeyA-MKppw4qdrL-17" source="7-LpJYeyA-MKppw4qdrL-9" target="7-LpJYeyA-MKppw4qdrL-10" edge="1">
          <mxGeometry relative="1" as="geometry" />
        </mxCell>
        <mxCell id="7-LpJYeyA-MKppw4qdrL-38" value="&lt;font face=&quot;Helvetica&quot; style=&quot;font-size: 14px;&quot;&gt;Grafana&lt;/font&gt;" style="text;html=1;align=center;verticalAlign=middle;resizable=0;points=[];autosize=1;strokeColor=none;fillColor=none;" parent="7-LpJYeyA-MKppw4qdrL-17" vertex="1">
          <mxGeometry x="714.7099999999999" y="126.39" width="70" height="30" as="geometry" />
        </mxCell>
        <mxCell id="7-LpJYeyA-MKppw4qdrL-40" value="&lt;font style=&quot;font-size: 14px;&quot;&gt;Amazon Timestream&lt;/font&gt;" style="text;html=1;align=center;verticalAlign=middle;resizable=0;points=[];autosize=1;strokeColor=none;fillColor=none;" parent="7-LpJYeyA-MKppw4qdrL-17" vertex="1">
          <mxGeometry x="674.7099999999999" y="625.71" width="150" height="30" as="geometry" />
        </mxCell>
        <mxCell id="7-LpJYeyA-MKppw4qdrL-41" value="&lt;font style=&quot;font-size: 14px;&quot;&gt;AWS IoT Core&lt;/font&gt;" style="text;html=1;align=center;verticalAlign=middle;resizable=0;points=[];autosize=1;strokeColor=none;fillColor=none;" parent="7-LpJYeyA-MKppw4qdrL-17" vertex="1">
          <mxGeometry x="445.1700000000001" y="625.71" width="110" height="30" as="geometry" />
        </mxCell>
        <mxCell id="r2aRSGWTVSXIvTG8wzOx-9" value="" style="edgeStyle=orthogonalEdgeStyle;rounded=0;orthogonalLoop=1;jettySize=auto;html=1;" parent="7-LpJYeyA-MKppw4qdrL-17" source="r2aRSGWTVSXIvTG8wzOx-2" target="7-LpJYeyA-MKppw4qdrL-10" edge="1">
          <mxGeometry relative="1" as="geometry" />
        </mxCell>
        <mxCell id="r2aRSGWTVSXIvTG8wzOx-2" value="" style="sketch=0;points=[[0,0,0],[0.25,0,0],[0.5,0,0],[0.75,0,0],[1,0,0],[0,1,0],[0.25,1,0],[0.5,1,0],[0.75,1,0],[1,1,0],[0,0.25,0],[0,0.5,0],[0,0.75,0],[1,0.25,0],[1,0.5,0],[1,0.75,0]];outlineConnect=0;fontColor=#232F3E;fillColor=#7AA116;strokeColor=#ffffff;dashed=0;verticalLabelPosition=bottom;verticalAlign=top;align=center;html=1;fontSize=12;fontStyle=0;aspect=fixed;shape=mxgraph.aws4.resourceIcon;resIcon=mxgraph.aws4.elastic_file_system;" parent="7-LpJYeyA-MKppw4qdrL-17" vertex="1">
          <mxGeometry x="880" y="156.39" width="128.38" height="128.38" as="geometry" />
        </mxCell>
        <mxCell id="7-LpJYeyA-MKppw4qdrL-23" value="" style="sketch=0;points=[[0,0,0],[0.25,0,0],[0.5,0,0],[0.75,0,0],[1,0,0],[0,1,0],[0.25,1,0],[0.5,1,0],[0.75,1,0],[1,1,0],[0,0.25,0],[0,0.5,0],[0,0.75,0],[1,0.25,0],[1,0.5,0],[1,0.75,0]];outlineConnect=0;fontColor=#232F3E;fillColor=#7AA116;strokeColor=#ffffff;dashed=0;verticalLabelPosition=bottom;verticalAlign=top;align=center;html=1;fontSize=12;fontStyle=0;aspect=fixed;shape=mxgraph.aws4.resourceIcon;resIcon=mxgraph.aws4.iot_fleetwise;" parent="7-LpJYeyA-MKppw4qdrL-17" vertex="1">
          <mxGeometry x="132" y="499.17" width="126" height="126" as="geometry" />
        </mxCell>
        <mxCell id="r2aRSGWTVSXIvTG8wzOx-8" style="edgeStyle=orthogonalEdgeStyle;rounded=0;orthogonalLoop=1;jettySize=auto;html=1;entryX=0;entryY=0.5;entryDx=0;entryDy=0;entryPerimeter=0;" parent="7-LpJYeyA-MKppw4qdrL-17" source="7-LpJYeyA-MKppw4qdrL-23" target="7-LpJYeyA-MKppw4qdrL-11" edge="1">
          <mxGeometry relative="1" as="geometry" />
        </mxCell>
        <mxCell id="r2aRSGWTVSXIvTG8wzOx-10" value="EFS" style="text;html=1;align=center;verticalAlign=middle;resizable=0;points=[];autosize=1;strokeColor=none;fillColor=none;" parent="7-LpJYeyA-MKppw4qdrL-17" vertex="1">
          <mxGeometry x="919.1899999999999" y="126.38999999999993" width="50" height="30" as="geometry" />
        </mxCell>
      </root>
    </mxGraphModel>
  </diagram>
</mxfile>
